<?xml version="1.0" encoding="UTF-8"?>
<svg id="Layer_2" data-name="Layer 2" xmlns="http://www.w3.org/2000/svg" viewBox="0 0 54 68">
  <defs>
    <style>
      .cls-1 {
        fill-rule: evenodd;
        stroke-width: 0px;
      }
    </style>
  </defs>
  <g id="Layer_1-2" data-name="Layer 1">
    <path class="cls-1" d="m3,1c0-.55.45-1,1-1h46c.55,0,1,.45,1,1v9c0,.55-.45,1-1,1h-1.2l5.13,13.46c.04.11.07.23.07.36v31.35c0,.08,0,.15-.02.22-.41,6.47-5.74,11.61-12.28,11.61H12.3C5.77,68,.43,62.86.02,56.39c-.02-.07-.02-.15-.02-.22v-31.35c0-.12.02-.24.07-.36l5.13-13.46h-1.2c-.55,0-1-.45-1-1V1Zm46,8V2H5v7h44ZM7.34,11l-4.89,12.82h49.1l-4.89-12.82H7.34Zm44.66,14.82H2v29.35h50v-29.35Zm-.12,31.35H2.12c.75,5,5.03,8.83,10.19,8.83h29.39c5.16,0,9.44-3.83,10.19-8.83Zm-28.42-25.89c.19-.18.43-.28.69-.28h17.06c.26,0,.51.1.7.28l3.48,3.39c.37.36.41.93.09,1.33l-9.02,11.61c-.19.24-.48.39-.79.39h-16.23c-.44.26-.9.49-1.35.68-3.32,1.38-7.09.85-9.21-2.24-.71-1.04-.9-2.4-.89-3.71.02-1.33.25-2.76.55-4.05.3-1.29.66-2.48.95-3.35.15-.43.27-.78.36-1.03.05-.12.08-.22.11-.29l.03-.08v-.02s.01,0,.01,0t.93.37q-.01-1-.01-1h.02s.05,0,.05,0c.05,0,.11,0,.2,0,.17,0,.42,0,.73.01.62.02,1.47.06,2.44.15,1.7.16,3.83.49,5.6,1.16l3.49-3.33Zm-1.61,4.31c.33.24.64.51.9.81l2.54-2.47c.19-.18.44-.28.7-.28h12.79l.46-.64h-14.7l-2.7,2.58Zm19.49-2.06l2.02,1.96-7.3,9.4-1.1-3.5,5.11-6.11s.03-.04.04-.05l1.23-1.7Zm-7.98,6.64l3.79-4.53h-10.76l-2.62,2.55c.25.65.39,1.31.43,1.98h9.16Zm-9.34,2c-.33,1.39-1.06,2.7-2.1,3.84h12.39l-1.21-3.84h-9.07Zm-4.57,3.41c1.62-1.28,2.57-2.93,2.74-4.51.1-.9-.06-1.8-.49-2.65-.09-.18-.2-.36-.32-.54-.29-.42-.81-.82-1.6-1.18-1.56-.71-3.73-1.08-5.59-1.25-.92-.09-1.73-.13-2.31-.15-.09,0-.17,0-.24,0-.07.19-.15.42-.24.68-.28.82-.62,1.95-.9,3.16-.28,1.22-.49,2.49-.5,3.63-.01,1.16.17,2.02.54,2.55.39.56.86,1.02,1.4,1.35-.65-.74-1.12-1.53-1.36-2.2-.19-.52.08-1.09.59-1.28.52-.19,1.09.08,1.28.59.24.65.9,1.66,1.84,2.37.91.69,1.96,1.03,3.07.67.09-.04.18-.08.27-.12-2.68-1.15-4.49-3.44-4.85-5.51-.09-.54.27-1.06.82-1.16.54-.09,1.06.27,1.16.82.24,1.39,1.7,3.34,4.12,4.19.27.09.47.29.58.53Zm-8.51-11.29v-1c-.42,0-.78.25-.93.63l.93.37Zm1.84,2.5c.12-.54.65-.88,1.19-.76.11.02.23.05.36.08,1.13.24,3.03.65,4.54,1.45.85.45,1.7,1.09,2.19,2,.52.97.55,2.09.05,3.32-.21.51-.79.76-1.3.55-.51-.21-.76-.79-.55-1.3.31-.76.23-1.26.04-1.62-.22-.41-.67-.81-1.36-1.18-1.24-.66-2.86-1.01-4.01-1.26-.14-.03-.26-.06-.39-.08-.54-.12-.88-.65-.76-1.19Z"/>
  </g>
</svg>