<?xml version="1.0" encoding="UTF-8"?>
<svg id="Layer_2" data-name="Layer 2" xmlns="http://www.w3.org/2000/svg" viewBox="0 0 76.65 90.62">
  <defs>
    <style>
      .cls-1 {
        stroke-width: 0px;
      }
    </style>
  </defs>
  <g id="Layer_1-2" data-name="Layer 1">
    <path class="cls-1" d="m70.61,32.18l.55-.55c3.55-3.55,3.55-9.31,0-12.87L55.07,2.66c-1.71-1.71-4.02-2.66-6.44-2.66s-4.73.96-6.43,2.66L2.66,42.2c-3.55,3.56-3.55,9.31,0,12.87l3.38,3.38-.55.55h0c-3.55,3.55-3.55,9.31,0,12.87l16.09,16.09c1.71,1.71,4.02,2.66,6.44,2.66s4.73-.96,6.43-2.66l39.54-39.54c3.55-3.56,3.55-9.31,0-12.87l-3.38-3.37ZM5.98,51.76c-1.72-1.72-1.72-4.52,0-6.24L45.52,5.98c1.75-1.67,4.49-1.67,6.24,0l16.09,16.09c1.72,1.73,1.72,4.52,0,6.24l-.55.55-9.39-9.39h0c-1.71-1.71-4.02-2.67-6.43-2.67s-4.73.96-6.43,2.66L9.36,55.14l-3.38-3.38Zm64.69-6.65l-39.54,39.54c-1.75,1.67-4.49,1.67-6.24,0l-16.09-16.09c-1.72-1.73-1.72-4.52,0-6.24L48.34,22.78c1.72-1.72,4.52-1.72,6.24,0l16.09,16.09h0c.83.83,1.29,1.95,1.29,3.13s-.46,2.29-1.29,3.12h0Zm-20.35-8.01h0c0,1.21-.73,2.31-1.86,2.77-1.12.46-2.41.21-3.27-.65-.86-.86-1.11-2.15-.65-3.27.46-1.12,1.56-1.86,2.77-1.86,1.66,0,3,1.35,3,3h0Zm9.04,9.04h0c0,1.22-.73,2.31-1.86,2.78-1.12.46-2.41.21-3.27-.65-.86-.86-1.12-2.15-.65-3.27.46-1.12,1.56-1.85,2.77-1.85,1.66,0,3,1.34,3,3h0Zm-21.13,3.06c0,1.21-.73,2.31-1.86,2.77-1.12.46-2.41.21-3.27-.65-.86-.86-1.11-2.15-.65-3.27.46-1.12,1.56-1.86,2.77-1.86.8,0,1.56.32,2.12.88.56.57.88,1.33.88,2.12h0Zm9.04,9.04c0,1.21-.73,2.31-1.85,2.78-1.12.46-2.41.21-3.27-.65s-1.12-2.15-.65-3.27c.46-1.12,1.56-1.85,2.77-1.85,1.66,0,3,1.34,3,3h0Zm-21.14,3.05h0c0,1.22-.73,2.31-1.86,2.78-1.12.46-2.41.21-3.27-.65-.86-.86-1.12-2.15-.65-3.27.46-1.12,1.56-1.86,2.77-1.86,1.66,0,3,1.34,3,3h0Zm9.04,9.04h0c0,1.22-.73,2.32-1.85,2.78-1.12.46-2.41.21-3.27-.65s-1.12-2.15-.65-3.27c.46-1.12,1.56-1.85,2.78-1.85.79,0,1.56.32,2.12.88s.88,1.32.88,2.12h0Z"/>
  </g>
</svg>