<?xml version="1.0" encoding="UTF-8"?>
<svg id="Layer_2" data-name="Layer 2" xmlns="http://www.w3.org/2000/svg" viewBox="0 0 268.58 406.99">
  <defs>
    <style>
      .cls-1 {
        stroke-width: 0px;
      }
    </style>
  </defs>
  <g id="Layer_1-2" data-name="Layer 1">
    <g>
      <path class="cls-1" d="m246.43,0h-79.79l-22.15,37.34v161.25c-4.03-12.89-16.07-22.27-30.27-22.27h-47.17v5c0,8.39,3.28,16.03,8.62,21.7h-9.6c-16.81,0-30.6,13.15-31.63,29.7h-.07v5c0,8.39,3.28,16.03,8.62,21.7h-4.42c-15.78,0-28.9,11.59-31.31,26.7h-2.28c-2.76,0-5,2.24-5,5,0,42.2,34.33,76.54,76.54,76.54h14.9v12.57h-12.98c-9.83,0-17.75,11.9-17.75,21.75v5h71.45v-5c0-9.85-7.92-21.75-17.75-21.75h-12.97v-12.57h14.9c9.94,0,19.43-1.92,28.15-5.39v44.7h124.1V37.34L246.43,0Zm-125.38,396.99h-49.24c1.51-3.63,4.3-6.75,6.64-6.75h35.95c2.34,0,5.13,3.12,6.64,6.75Zm64.94-132.56v-5h-.4c-2.4-15.05-15.42-26.6-31.11-26.7v-22.2l104.1-45.62v77.85l-74.56,32.67c1.28-3.43,1.98-7.14,1.98-11.01Zm-41.51-46.68v14.98h-8.33c3.88-4.26,6.74-9.5,8.33-14.98Zm-66.86-31.43h36.59c10.25,0,18.85,7.14,21.12,16.7h-36.58c-10.25,0-18.86-7.14-21.12-16.7Zm-11.55,26.7h69.32c-2.11,10.1-10.29,19.7-20.73,19.7H44.47c1.01-11.03,10.31-19.7,21.61-19.7Zm-21.12,29.7h109.34c10.25,0,18.85,7.14,21.12,16.7h-109.33c-10.25,0-18.86-7.14-21.12-16.7Zm-6.37,26.7h136.83c-2.26,9.57-10.88,16.7-21.12,16.7H17.46c2.26-9.57,10.88-16.7,21.12-16.7Zm37.95,88.24c-35.01,0-63.79-27.17-66.35-61.54h172.5c-2.56,34.36-31.34,61.54-66.35,61.54h-39.81Zm182.05,39.32h-104.1v-39.54c22.92-13.24,38.39-37.99,38.39-66.31,0-2.76-2.24-5-5-5h-3.34l74.04-32.45v143.3h0Zm0-242.99l-104.1,45.62v-66.65h104.1v21.03Zm0-31.04h-104.1v-12.05h104.1v12.05h0Zm-68.46-22.05h-12.82v-52.4c0-2.65,2.15-4.8,4.8-4.8h3.21c2.65,0,4.8,2.15,4.8,4.8v52.4Zm45.64,0h-12.82v-52.4c0-2.65,2.15-4.8,4.8-4.8h3.21c2.65,0,4.8,2.15,4.8,4.8v52.4Zm10,0v-52.4c0-8.16-6.64-14.8-14.8-14.8h-3.21c-8.16,0-14.8,6.64-14.8,14.8v52.4h-12.82v-52.4c0-8.16-6.64-14.8-14.8-14.8h-3.21c-8.16,0-14.8,6.64-14.8,14.8v52.4h-12.82v-60.83l17.85-30.08h68.4l17.85,30.08v60.83h-12.82Z"/>
      <rect class="cls-1" x="84.55" y="339.67" width="10.73" height="10"/>
      <path class="cls-1" d="m173.58,303.77l-9.64-2.65-.8,2.89c-5.78,21-25.03,35.66-46.8,35.66h-12.86v10h12.86c26.26,0,49.47-17.68,56.44-43l.8-2.89Z"/>
    </g>
  </g>
</svg>