<?xml version="1.0" encoding="UTF-8"?>
<svg id="Layer_2" data-name="Layer 2" xmlns="http://www.w3.org/2000/svg" viewBox="0 0 48.6 81.24">
  <defs>
    <style>
      .cls-1 {
        stroke-width: 0px;
      }
    </style>
  </defs>
  <g id="Layer_1-2" data-name="Layer 1">
    <path class="cls-1" d="m11.14,55.04l-1.76,1.62c-.31.29-.45.71-.36,1.12.09.41.38.75.77.89l6.88,2.42-1.32,2.7c-.2.41-.15.9.13,1.26.28.36.75.53,1.2.43l6.41-1.39v4.02c0,.66.54,1.2,1.2,1.2s1.2-.54,1.2-1.2v-4.02l6.41,1.39c.09.02.17.03.25.03.36,0,.71-.16.94-.46.28-.36.34-.85.13-1.26l-1.32-2.7,6.88-2.42c.39-.14.69-.48.77-.89s-.05-.84-.36-1.12l-1.76-1.62,2.11-3.73c.23-.41.2-.91-.07-1.29-.27-.38-.74-.57-1.19-.48l-4.21.79-.97-2.19c-.17-.38-.53-.65-.95-.7-.42-.05-.83.12-1.09.45l-1.58,2.01,1.42-4.88c.12-.4.02-.84-.27-1.14s-.71-.45-1.12-.36l-2.34.48-1.8-3.88c-.2-.42-.62-.69-1.09-.69s-.89.27-1.09.69l-1.8,3.88-2.34-.48c-.41-.09-.84.05-1.12.36-.29.31-.39.74-.27,1.14l1.42,4.88-1.58-2.01c-.26-.33-.67-.5-1.09-.45-.41.05-.77.32-.95.7l-.97,2.19-4.21-.79c-.46-.09-.92.1-1.19.48s-.3.88-.07,1.29l2.11,3.73h.02Zm3.85-2.18c.55.11,1.09-.18,1.31-.69l.55-1.24,4.15,5.27c.36.45.98.59,1.48.32.51-.26.76-.85.6-1.4l-2.58-8.88,1.33.27c.54.11,1.09-.16,1.32-.67l1.12-2.41,1.12,2.41c.23.5.79.78,1.32.67l1.33-.27-2.58,8.88c-.16.55.09,1.14.6,1.4.51.26,1.13.12,1.48-.32l4.15-5.27.55,1.24c.22.51.77.79,1.31.69l2.61-.49-1.31,2.31c-.27.48-.18,1.09.23,1.47l1,.92-6.28,2.21c-.32.11-.58.36-.71.68-.13.32-.12.67.03.98l.82,1.69-5.45-1.18h0c-.08-.02-.16-.03-.25-.03s-.17.01-.25.03h0l-5.45,1.18.82-1.69c.15-.3.16-.66.03-.98-.13-.32-.39-.56-.71-.68l-6.28-2.21,1-.92c.41-.38.5-.98.23-1.47l-1.31-2.31,2.61.49h.02Zm33.23-7.93c0-.09-.02-.18-.04-.26-1.96-10.65-10.41-15.54-13.18-16.87.1-1.52-.1-4.6-2.42-8.69-.69-1.21-.97-4.61-1.02-7.09h1.13c.66,0,1.2-.54,1.2-1.2V1.2c0-.66-.54-1.2-1.2-1.2H15.89c-.66,0-1.2.54-1.2,1.2v9.62c0,.66.54,1.2,1.2,1.2h1.13c-.04,2.48-.32,5.88-1.02,7.09-2.32,4.09-2.52,7.17-2.42,8.69-2.77,1.34-11.22,6.23-13.18,16.87-.02.09-.04.17-.04.26-.23,1.35-.37,2.79-.37,4.32,0,14.56,7.97,30.65,8.31,31.33.2.41.62.66,1.07.66h29.83c.45,0,.87-.25,1.07-.66.34-.68,8.31-16.78,8.31-31.33,0-1.54-.13-2.97-.37-4.32h0ZM2.39,49.25c0-1.33.11-2.59.3-3.76,1.21-1.46,8.96-10.23,21.61-10.23s20.4,8.76,21.61,10.23c.19,1.18.3,2.43.3,3.76,0,3.72-.57,7.59-1.4,11.27-.92,1.5-8.32,12.95-20.51,12.95S4.7,62.02,3.79,60.52c-.83-3.68-1.4-7.55-1.4-11.27h0ZM17.09,2.39h14.41v7.23h-14.41V2.39Zm-1.78,27.25c.58-.22.89-.84.73-1.43,0-.03-.72-3.05,2.05-7.92,1.08-1.91,1.29-6.14,1.33-8.27h9.76c.04,2.13.25,6.37,1.33,8.27,2.76,4.86,2.05,7.91,2.05,7.92-.16.59.16,1.21.73,1.43.41.15,7.82,3.07,11.23,11.02-3.81-3.34-10.67-7.79-20.21-7.79s-16.4,4.44-20.21,7.79c3.41-7.95,10.82-10.86,11.22-11.02h0Zm23.15,49.21H10.13c-.79-1.67-2.88-6.34-4.7-12.19,3.73,4.12,10.1,9.21,18.86,9.21s15.14-5.09,18.86-9.21c-1.81,5.85-3.91,10.53-4.7,12.19h0Z"/>
  </g>
</svg>